<?xml version="1.0" standalone="no"?><!DOCTYPE svg PUBLIC "-//W3C//DTD SVG 1.1//EN" "http://www.w3.org/Graphics/SVG/1.1/DTD/svg11.dtd"><svg t="1775800659108" class="icon" viewBox="0 0 1024 1024" version="1.1" xmlns="http://www.w3.org/2000/svg" p-id="1713" xmlns:xlink="http://www.w3.org/1999/xlink" width="200" height="200"><path d="M377.688269 910.020267l9.975466-0.170667c4.1728-1.194667 13.636267-26.9056 13.021867-30.9504 14.011733 2.773333 28.356267 3.328 42.6752 2.7648 76.8768-3.012267 141.525333-24.686933 210.3296-56.8832 144.494933-67.6096 287.240533-187.741867 305.7408-356.514133 2.781867-25.403733-0.5632-49.425067-5.435733-74.333867-2.730667-13.9776-6.664533-27.8272-9.3184-41.8304 4.804267-7.3728 16.9472-5.8624 22.903466-10.973867 2.432-2.090667 2.628267-7.637333 6.7584-8.797866 56.772267 76.791467 60.305067 194.389333 33.501867 283.101866-41.531733 137.437867-156.1856 253.832533-281.506133 319.189334-116.206933 60.603733-232.021333 67.456-338.525867-16.469334-3.780267-2.978133-4.983467-5.802667-10.120533-8.1408z" fill="#F9D630" p-id="1714"></path><path d="M372.278135 846.4384c2.346667 0.247467 12.714667 9.130667 14.907734 11.477333 2.696533 2.884267 7.1424 8.96 9.233066 12.416 0.955733 1.578667 4.0704 7.296 4.266667 8.584534 0.6144 4.0448-8.849067 29.755733-13.021867 30.9504l-9.975466 0.170666c-0.477867-0.221867-1.860267 0.4352-2.500267-0.162133-0.315733-0.298667-3.080533-6.6304-3.6096-7.936-5.188267-12.8256-7.970133-34.414933-6.0672-48.042667 0.1792-1.28 1.937067-5.333333 2.705067-6.0928s2.850133-1.4848 4.061866-1.3568z" fill="#785C2A" p-id="1715"></path><path d="M921.577335 133.469867c-3.626667-0.034133-5.410133 3.9424-8.174933 6.033066-1.9712 1.4848-5.879467 2.807467-6.7072 3.438934-2.432-10.538667-6.161067-20.8384-9.472-31.112534l22.340267 14.856534c0.546133 2.414933 1.117867 4.471467 2.013866 6.784z" fill="#FCE784" p-id="1716"></path><path d="M653.690402 824.789333c-68.804267 32.196267-133.4528 53.8624-210.3296 56.8832-14.318933 0.5632-28.663467 0-42.6752-2.7648-0.196267-1.288533-3.310933-7.005867-4.266667-8.584533-2.090667-3.447467-6.536533-9.531733-9.233066-12.416-2.193067-2.338133-12.561067-11.221333-14.907734-11.477333 0-2.423467 1.322667-4.266667 2.679467-6.1184 14.2848-19.6352 44.987733-45.124267 65.032533-59.434667 47.291733-33.757867 103.364267-54.178133 151.415467-86.7072 40.7552-27.588267 73.4208-58.615467 104.234667-96.674133 19.421867-23.9872 37.3248-49.5104 52.5568-76.6464 34.901333-62.173867 52.130133-140.706133 101.742933-193.2288 0.9984-1.058133 1.1264-2.926933 1.4848-3.208534 0.5376-0.426667 3.780267-0.597333 5.717333-1.732266 4.292267-2.5088 2.6112-4.224 9.710934-3.933867 6.0672 0.247467 5.674667-0.5888 10.7776-1.28 8.3968-1.134933 8.2432 1.578667 13.764266 3.771733 5.4016 2.1504 10.555733-0.213333 13.320534 6.971734 2.261333 5.870933 2.432 12.270933 3.3536 18.286933 19.933867 129.536-24.840533 261.410133-109.585067 359.9104-40.567467 47.146667-82.577067 80.017067-135.790933 111.786667-2.9184 1.7408-7.1424 3.822933-8.994134 6.562133z" fill="#FAE96D" p-id="1717"></path><path d="M856.630135 291.754667c0.017067 3.140267 0.1024 6.340267 0 9.472l-1.2032 0.8448c-0.3584 1.058133-0.093867 2.1504-0.145066 3.217066-0.068267 1.348267 0.068267 2.7136 0 4.061867l-2.705067 1.3568c-3.976533-10.197333-7.978667-20.522667-10.820267-31.112533-5.486933-20.420267-6.016-43.204267-4.027733-64.2304l2.670933-8.823467c2.7136 9.873067 6.6048 19.4816 9.147734 29.4144 4.7104 18.432 6.980267 36.864 7.0912 55.816533z" fill="#FBFCFB" p-id="1718"></path><path d="M855.281869 305.288533c0.0512-1.058133-0.213333-2.158933 0.145066-3.217066l1.2032-0.8448c-0.034133 1.066667 0.196267 2.158933-0.145066 3.217066l-1.2032 0.8448zM855.281869 309.341867c-0.042667 0.896 0.0256 1.809067 0 2.705066l-2.705067-1.348266 2.705067-1.3568z" fill="#FAE96D" p-id="1719"></path><path d="M724.073335 65.902933c0.708267 2.7392 3.413333 3.1744 5.572267 4.155734 21.469867 9.762133 48.0256 20.292267 70.715733 26.564266 17.604267 4.872533 35.976533 7.0912 53.7088 11.400534 4.232533 10.8288 8.200533 22.1184 12.910934 32.733866 7.978667 17.979733 9.1392 19.089067 23.227733 32.145067 1.774933 1.646933 2.9952 4.087467 5.981867 3.746133-1.553067 1.024-2.7904 2.295467-5.239467 2.449067-5.7344-1.4848-11.869867-1.723733-17.681067-2.730667-2.440533-0.426667-5.111467-2.3296-7.790933-2.688-13.2608-1.757867-23.714133 4.642133-35.925333 5.930667-6.340267 0.6656-5.896533-1.160533-10.154667-3.259733-6.6304-3.259733-23.364267-13.192533-28.9792-14.429867-7.2448-1.5872-17.553067 1.399467-24.533333-0.913067-4.113067-1.365333-12.637867-8.448-17.365334-11.076266-6.673067-3.703467-15.291733-6.903467-21.469866-10.709334-3.106133-1.911467-13.354667-10.504533-14.293334-13.397333-1.578667-4.864 0.034133-11.9808 0.8704-17.2288 1.800533-11.3152 4.727467-27.886933 7.688534-38.7072 0.631467-2.304 1.595733-2.6368 2.730666-4.002133z" fill="#BBAB29" p-id="1720"></path><path d="M789.925069 52.437333c15.1552 6.126933 29.303467 12.424533 44.9024 17.962667 24.2944 8.6272 48.964267 15.982933 73.915733 22.621867 3.933867 2.542933 5.341867 12.9024 6.912 17.783466 3.6608 11.3664 7.790933 22.766933 10.478933 34.423467-2.449067 1.877333-5.333333 7.5264-7.458133 9.7536-5.819733 6.135467-15.872 17.322667-22.4768 21.674667-2.9952 0.341333-4.206933-2.0992-5.981867-3.746134-14.088533-13.056-15.249067-14.165333-23.227733-32.145066-4.7104-10.624-8.6784-21.9136-12.910933-32.733867-17.732267-4.309333-36.104533-6.528-53.7088-11.400533-22.690133-6.272-49.245867-16.802133-70.715734-26.564267-2.158933-0.981333-4.864-1.416533-5.572266-4.155733 0.622933-0.7424 0.8192-2.423467 2.414933-2.781867l37.256533-19.694933c1.442133-0.187733 2.833067-0.059733 4.2496 0.256 4.9152 1.1008 16.341333 6.493867 21.930667 8.7552z" fill="#785B26" p-id="1721"></path><path d="M788.798669 301.4144c0.2048 1.1776 1.117867 2.4064 1.288533 3.421867 0.981333 5.691733 0.827733 19.473067 0.221867 25.437866-0.759467 7.4496-3.874133 19.063467-5.691734 26.7776-39.867733 168.746667-179.157333 293.486933-340.590933 345.335467l-50.0992 12.817067c-4.224 0.597333-8.610133 0.836267-12.8256 1.373866-3.643733 0.469333-8.6016 2.218667-12.228267 2.653867-70.203733 8.456533-142.378667 5.0688-210.397866-15.496533-7.8336-2.372267-15.752533-5.009067-22.9632-8.832 0.315733-3.106133-0.887467-6.766933-1.681067-9.821867-3.003733-11.554133-9.719467-21.751467-17.262933-30.7712 0.290133-0.119467 2.423467-3.549867 4.096-4.701867 18.4832-12.740267 42.197333-24.9344 63.172266-32.9216 1.979733-0.750933 2.082133-0.085333 1.732267-2.961066-1.988267-0.110933-4.0704 0.264533-6.058667-0.034134-38.2208-5.597867-93.5168-25.745067-127.470933-44.356266-2.807467-1.536-10.7776-5.930667-12.603733-7.688534-2.653867-2.56-0.896-9.668267-1.322667-13.6192-0.1792-1.646933-1.3568-1.834667-1.373867-1.954133-0.8192-4.864-1.2032-9.028267-3.003733-13.909333-2.167467-5.870933-6.417067-11.008-7.825067-17.2032 26.692267-11.5712 50.013867-20.241067 79.197867-25.659734 60.8768-11.306667 125.3376-3.6864 186.641067-12.245333 89.1904-12.458667 173.457067-52.3264 242.2272-109.533867 27.1104-22.5536 50.244267-48.580267 78.4128-70.408533 18.0992-14.020267 37.102933-25.4208 56.174933-37.853867l4.949333 5.230934c3.012267-0.273067 6.237867-2.8672 9.250134-2.619734" fill="#FAE96D" p-id="1722"></path><path d="M682.772002 261.905067c-3.003733-0.3584-6.2464 2.346667-9.250133 2.619733l-4.949334-5.230933c18.474667-12.049067 28.142933-16.674133 37.879467-37.879467h15.556267c6.007467 3.114667 9.685333 5.1968 16.904533 4.061867l48.059733 27.0336c3.473067-0.068267 10.359467 4.855467 12.9024 7.441066 4.599467 4.676267 9.6768 7.867733 14.1824 12.834134 1.314133 1.450667 2.4064 4.266667 3.285334 4.829866 3.677867 2.397867 9.5744 2.235733 13.824 2.5856 3.336533 0.273067 6.929067 0.170667 10.5984-0.6144 2.8416 10.5984 6.843733 20.9152 10.820266 31.112534l2.705067 1.348266c0.034133-0.896-0.042667-1.809067 0-2.705066 0.068267-1.348267-0.068267-2.7136 0-4.061867l1.2032-0.8448c0.341333-1.058133 0.110933-2.1504 0.145067-3.217067 0.1024-3.131733 0.017067-6.331733 0-9.472 3.601067-1.570133 7.3216-1.681067 11.204266-3.003733 1.271467-0.4352 8.541867-3.618133 8.891734-3.959467 2.048-2.048-0.4608-6.766933 5.1456-7.7568 1.425067-0.247467 3.165867 1.314133 4.5824 1.8176l3.464533 6.007467c11.272533 0.597333 20.6592 8.533333 32.3328 6.894933 2.432-0.341333 4.096-2.295467 5.614933-2.5344 1.749333-0.273067 4.565333 2.005333 6.5536 2.048 1.237333 0.0256 6.7072-0.7936 7.4496-2.218666 4.804267 8.1408 12.5184 17.885867 18.321067 25.6512 4.488533 5.998933 9.668267 11.579733 14.148267 17.646933-4.130133 1.160533-4.3264 6.715733-6.7584 8.797867-5.956267 5.111467-18.090667 3.601067-22.903467 10.973866 2.653867 14.0032 6.587733 27.8528 9.3184 41.8304 4.872533 24.9088 8.2176 48.9216 5.435733 74.333867-18.500267 168.772267-161.245867 288.896-305.7408 356.514133 1.860267-2.730667 6.084267-4.821333 8.994134-6.562133 53.213867-31.7696 95.232-64.64 135.790933-111.786667 84.753067-98.5088 129.518933-230.3744 109.585067-359.9104-0.930133-6.016-1.092267-12.416-3.3536-18.286933-2.773333-7.185067-7.918933-4.821333-13.320534-6.971733-5.521067-2.2016-5.367467-4.906667-13.764266-3.771734-5.102933 0.6912-4.7104 1.527467-10.7776 1.28-7.099733-0.290133-5.418667 1.425067-9.710934 3.933867-1.937067 1.134933-5.179733 1.297067-5.717333 1.732267-0.3584 0.2816-0.4864 2.158933-1.4848 3.208533-49.6128 52.522667-66.8416 131.054933-101.742933 193.2288-15.232 27.127467-33.134933 52.6592-52.5568 76.6464-0.9728-2.8928-4.283733-0.7168-5.888 0.196267-6.954667 3.968-15.522133 11.8528-22.5792 16.657066-84.770133 57.6256-172.125867 86.493867-273.237334 100.846934l50.0992-12.817067c161.4336-51.84 300.7232-176.5888 340.590934-345.335467 1.8176-7.7056 4.9408-19.328 5.691733-26.7776 0.605867-5.9648-1.314133-27.690667-1.5104-28.859733 0 0-67.4816-34.875733-106.018133-39.517867z" fill="#ECDC3E" p-id="1723"></path><path d="M695.631735 597.504c-30.813867 38.058667-63.488 69.085867-104.234666 96.674133-48.042667 32.520533-104.1152 52.949333-151.415467 86.7072-20.0448 14.3104-50.7392 39.808-65.032533 59.434667-1.348267 1.851733-2.670933 3.694933-2.679467 6.1184-1.211733-0.128-3.285333 0.5888-4.061867 1.3568-1.220267-2.9184-4.872533-0.887467-6.766933-0.674133-16.9728 1.902933-34.0736-0.196267-50.756267-2.005334-83.925333-9.122133-147.165867-49.024-197.444266-115.080533-1.792-2.346667-4.3264-7.901867-6.144-9.412267 3.328-0.375467 7.876267 0.878933 10.8544-0.64s15.086933-18.7392 16.878933-22.417066c0.5376-1.109333 0.5632-1.5104 0.682667-2.645334 7.210667 3.822933 15.1296 6.459733 22.9632 8.832 68.0192 20.565333 140.194133 23.953067 210.397866 15.496534 3.626667-0.4352 8.584533-2.184533 12.228267-2.653867 4.224-0.546133 8.610133-0.776533 12.8256-1.373867 101.111467-14.353067 188.4672-43.221333 273.237333-100.846933 7.057067-4.795733 15.624533-12.680533 22.5792-16.657067 1.604267-0.9216 4.923733-3.089067 5.888-0.196266z" fill="#F9D531" p-id="1724"></path><path d="M814.048802 272.785067c1.083733 1.621333 2.4064 4.266667 3.285333 4.829866 3.677867 2.397867 9.5744 2.798933 13.824 3.1488 3.336533 0.273067 6.929067-0.392533 10.5984-1.1776-5.486933-20.420267-6.016-43.204267-4.027733-64.2304l2.670933-8.823466c2.7136 9.873067 6.6048 19.4816 9.147734 29.4144 4.7104 18.432 6.980267 36.864 7.0912 55.816533 3.601067-1.570133 7.3216-1.681067 11.204266-3.003733 1.271467-0.4352 8.541867-3.618133 8.891734-3.959467l13.192533 0.068267c11.272533 0.597333 20.6592 8.533333 32.3328 6.894933 2.432-0.341333 4.471467 0.6656 5.9904 0.426667 1.749333-0.273067 4.189867-0.955733 6.178133-0.9216 1.237333 0.0256 6.7072-0.7936 7.4496-2.218667-17.1008-28.9536-24.789333-66.295467-27.0336-99.464533-1.024-15.163733 4.445867-31.266133 11.2896-44.706134-1.117867-3.4304-1.954133-8.3712-3.242666-11.7248-3.626667-0.034133-6.715733 4.266667-9.480534 6.3488-1.9712 1.4848-5.879467 2.807467-6.7072 3.438934-2.218667 1.698133-4.821333 6.801067-6.741333 8.823466-5.256533 5.546667-14.344533 15.658667-20.317867 19.592534-1.408 0.9216-2.525867 2.0736-4.736 2.210133-5.179733-1.339733-10.734933-1.5616-15.982933-2.466133-2.210133-0.384-4.616533-2.107733-7.04-2.423467-11.989333-1.5872-21.435733 4.1984-32.477867 5.358933-5.7344 0.605867-5.333333-1.0496-9.173333-2.944-5.9904-2.944-21.12-11.9296-26.197333-13.038933-6.545067-1.442133-15.863467 1.262933-22.1696-0.827733-3.712-1.2288-11.426133-7.637333-15.6928-10.0096-6.033067-3.345067-13.824-6.2464-19.413334-9.6768-0.750933 12.544-3.003733 25.9072-5.725866 38.2464-3.0976 14.045867-8.6016 32.631467-14.5664 45.636266h15.556266s86.775467 43.502933 92.040534 51.370667z" fill="#CED940" p-id="1725"></path><path d="M36.738935 546.0992c0.017067 0.119467 1.194667 0.3072 1.373867 1.954133 0.418133 3.9424-1.3312 11.0592 1.322667 13.6192 1.826133 1.7664 9.796267 6.152533 12.603733 7.688534 33.954133 18.6112 89.250133 38.7584 127.470933 44.356266 1.988267 0.290133 4.0704-0.085333 6.058667 0.034134 0.349867 2.875733 0.247467 2.2016-1.732267 2.961066-20.974933 7.995733-44.689067 20.181333-63.172266 32.9216-1.672533 1.152-3.805867 4.5824-4.096 4.701867-0.546133 0.221867-2.0224-0.290133-3.1232 0.2048-3.0976 1.390933-5.870933 6.075733-7.074134 9.216-3.140267 8.200533-5.572267 22.365867-6.0416 31.163733-6.536533-2.602667-12.842667-7.7056-18.295466-12.151466-21.8368-17.8176-45.047467-44.4928-59.972267-68.5568C15.243469 603.229867 10.737869 590.993067 4.269602 579.925333c5.2224 0.5632 7.4496 2.722133 12.663467-0.187733 2.577067-1.442133 16.349867-15.197867 18.5088-18.0224 2.7648-3.618133 0.6912-10.973867 1.3056-15.607467z" fill="#F8D731" p-id="1726"></path><path d="M116.568269 654.327467c7.543467 9.019733 14.250667 19.217067 17.262933 30.7712 0.7936 3.054933 1.9968 6.715733 1.681067 9.821866-0.119467 1.143467-0.136533 1.544533-0.682667 2.645334-1.792 3.677867-13.943467 20.923733-16.878933 22.417066s-7.5264 0.264533-10.8544 0.64c-1.015467-0.8448-3.575467-1.092267-3.899734-1.5104-2.167467-2.8416-3.0976-19.899733-2.8672-24.192 0.469333-8.797867 2.901333-22.9632 6.0416-31.163733 1.2032-3.140267 3.976533-7.8336 7.074134-9.216 1.1008-0.494933 2.577067 0.017067 3.1232-0.2048z" fill="#785C28" p-id="1727"></path><path d="M25.918669 514.978133c1.408 6.203733 5.6576 11.332267 7.825066 17.2032 1.800533 4.881067 2.176 9.045333 3.003734 13.909334-0.6144 4.6336 1.467733 11.989333-1.3056 15.607466-2.158933 2.824533-15.9232 16.580267-18.5088 18.0224-5.205333 2.9184-7.441067 0.750933-12.663467 0.187734-1.117867-1.911467-3.5328-3.677867-3.8912-4.906667-1.152-3.8912 0.6144-13.986133 1.467733-18.4832 1.902933-10.043733 8.968533-30.8992 15.906134-38.212267 3.2768-3.456 5.691733-2.261333 8.1664-3.336533z" fill="#785B29" p-id="1728"></path><path d="M682.772002 261.905067s60.8 5.981867 106.018133 39.517866" fill="#FAE96D" p-id="1729"></path><path d="M179.510135 613.7088C150.343202 622.967467 362.951202 597.7344 479.004535 523.093333c143.5136-92.296533 251.613867-248.055467 251.613867-248.055466S622.210935 393.531733 466.221602 491.4176c-85.572267 53.700267-194.218667 92.936533-286.711467 122.2912z" fill="#ECDC3E" p-id="1730"></path></svg>