<svg width="512" height="512" viewBox="0 0 512 512" fill="none" xmlns="http://www.w3.org/2000/svg">
<path d="M338.46 138.127C351.359 151.032 364.673 173.238 369.122 190.99C372.268 203.548 373.146 212.998 372.831 225.881C372.23 230.325 372.075 234.757 371.529 239.234C371.269 241.486 371.026 243.743 370.922 246.017C369.685 253.143 361.753 278.104 356.013 281.83C351.724 284.612 345.679 282.117 344.73 277.116C343.781 272.115 346.64 269.521 347.843 265.392C366.826 200.192 313.924 138.292 246.45 148.603C215.406 153.345 190.125 174.376 177.529 202.632C174.217 210.061 175.045 218.142 164.673 217.325C146.646 215.907 137.527 213.456 119.422 220.069C39.5224 249.235 56.8656 369.937 148.655 371.102C159.612 371.24 170.574 370.776 181.487 371.682C179.157 380.458 179.615 390.284 182.718 398.839C183.352 400.583 189.148 410.354 188.657 410.812C187.056 410.37 185.251 411.303 183.915 411.309C146.21 411.48 115.646 413.875 82.4997 392.635C30.8893 359.566 13.4909 292.147 42.3099 237.787C62.5787 199.546 104.331 174.845 147.854 175.717C153.683 163.612 160.671 151.915 169.89 142.068C214.274 94.6417 292.043 91.6775 338.465 138.121L338.46 138.127Z" fill="#1CB1C8"/>
<path d="M328.314 409.542C340.706 398.624 350.615 386.48 358.171 371.626C451.765 363.695 476.875 235.723 392.217 193.518C399.095 190.648 406.348 187.491 413.943 188.694C427.666 191.156 439.257 205.358 448.928 215.664C529.512 289.166 461.304 434.188 328.314 409.537V409.542Z" fill="#1CB1C8"/>
<path d="M298.386 343.006H258.406C256.507 343.006 250.706 339.871 249.116 338.513C236.183 327.468 241.857 306.056 258.538 302.899C280.071 303.799 303.254 301.254 324.605 302.744C351.277 304.605 344.868 337.061 338.504 354.173C321.569 399.706 269.352 423.038 223.807 405.159C217.874 402.83 210.461 399.397 207.171 393.678C198.891 379.299 209.886 361.619 226.418 362.866C232.054 363.291 236.895 366.973 242.26 368.524C261.116 373.972 281.997 367.696 293.964 352.097C295.836 349.657 298.629 346.163 298.386 343.012V343.006Z" fill="#34C724"/>
<path d="M312.489 241.834C318.329 248.132 318.754 258.183 314.266 265.453C309.26 273.567 302.608 274.815 293.716 275.229C275.335 276.09 252.036 271.867 235.399 279.777C222.72 285.804 211.901 299.273 209.174 313.094C208.219 317.935 208.887 323.908 207.678 328.688C202.23 350.16 166.644 348.129 167.665 319.558C168.913 284.772 192.09 252.387 224.746 240.465C248.895 231.649 273.944 235.916 299.191 234.978C304.341 235.464 309.022 238.108 312.478 241.834H312.489Z" fill="#34C724"/>
</svg>
